<mxfile host="app.diagrams.net" agent="Mozilla/5.0 (Windows NT 10.0; Win64; x64) AppleWebKit/537.36 (KHTML, like Gecko) Chrome/136.0.0.0 Safari/537.36" version="27.0.9">
  <diagram name="Trang-1" id="Gy7x3zNXoxx1i3Q-R_vj">
    <mxGraphModel dx="1507" dy="1101" grid="0" gridSize="10" guides="1" tooltips="1" connect="1" arrows="1" fold="1" page="0" pageScale="1" pageWidth="1169" pageHeight="827" math="0" shadow="0">
      <root>
        <mxCell id="0" />
        <mxCell id="1" parent="0" />
        <mxCell id="6DMQwFqQUjRo6mC77eed-3" style="edgeStyle=orthogonalEdgeStyle;rounded=0;orthogonalLoop=1;jettySize=auto;html=1;entryX=0.5;entryY=0;entryDx=0;entryDy=0;fontSize=19;fontFamily=Times New Roman;" parent="1" source="6DMQwFqQUjRo6mC77eed-1" target="6DMQwFqQUjRo6mC77eed-2" edge="1">
          <mxGeometry relative="1" as="geometry" />
        </mxCell>
        <mxCell id="6DMQwFqQUjRo6mC77eed-1" value="Bắt Đầu" style="rounded=0;whiteSpace=wrap;html=1;fontSize=19;fontFamily=Times New Roman;" parent="1" vertex="1">
          <mxGeometry x="1210" y="-150" width="120" height="60" as="geometry" />
        </mxCell>
        <mxCell id="6DMQwFqQUjRo6mC77eed-40" style="edgeStyle=orthogonalEdgeStyle;rounded=0;orthogonalLoop=1;jettySize=auto;html=1;entryX=0.5;entryY=0;entryDx=0;entryDy=0;fontSize=19;fontFamily=Times New Roman;" parent="1" source="6DMQwFqQUjRo6mC77eed-2" target="6DMQwFqQUjRo6mC77eed-39" edge="1">
          <mxGeometry relative="1" as="geometry" />
        </mxCell>
        <mxCell id="6DMQwFqQUjRo6mC77eed-2" value="Load Dataset" style="rounded=0;whiteSpace=wrap;html=1;fontSize=19;fontFamily=Times New Roman;" parent="1" vertex="1">
          <mxGeometry x="1210" y="-70" width="120" height="60" as="geometry" />
        </mxCell>
        <mxCell id="6DMQwFqQUjRo6mC77eed-7" style="edgeStyle=orthogonalEdgeStyle;rounded=0;orthogonalLoop=1;jettySize=auto;html=1;fontSize=19;fontFamily=Times New Roman;" parent="1" source="6DMQwFqQUjRo6mC77eed-4" target="6DMQwFqQUjRo6mC77eed-6" edge="1">
          <mxGeometry relative="1" as="geometry" />
        </mxCell>
        <mxCell id="6DMQwFqQUjRo6mC77eed-14" style="edgeStyle=orthogonalEdgeStyle;rounded=0;orthogonalLoop=1;jettySize=auto;html=1;entryX=0.5;entryY=0;entryDx=0;entryDy=0;fontSize=19;fontFamily=Times New Roman;" parent="1" source="6DMQwFqQUjRo6mC77eed-4" target="6DMQwFqQUjRo6mC77eed-13" edge="1">
          <mxGeometry relative="1" as="geometry" />
        </mxCell>
        <mxCell id="6DMQwFqQUjRo6mC77eed-18" style="edgeStyle=orthogonalEdgeStyle;rounded=0;orthogonalLoop=1;jettySize=auto;html=1;entryX=0.5;entryY=0;entryDx=0;entryDy=0;fontSize=19;fontFamily=Times New Roman;" parent="1" source="6DMQwFqQUjRo6mC77eed-4" target="6DMQwFqQUjRo6mC77eed-17" edge="1">
          <mxGeometry relative="1" as="geometry" />
        </mxCell>
        <mxCell id="6DMQwFqQUjRo6mC77eed-22" style="edgeStyle=orthogonalEdgeStyle;rounded=0;orthogonalLoop=1;jettySize=auto;html=1;entryX=0.5;entryY=0;entryDx=0;entryDy=0;fontSize=19;fontFamily=Times New Roman;" parent="1" source="6DMQwFqQUjRo6mC77eed-4" target="6DMQwFqQUjRo6mC77eed-21" edge="1">
          <mxGeometry relative="1" as="geometry" />
        </mxCell>
        <mxCell id="6DMQwFqQUjRo6mC77eed-31" style="edgeStyle=orthogonalEdgeStyle;rounded=0;orthogonalLoop=1;jettySize=auto;html=1;entryX=0.5;entryY=0;entryDx=0;entryDy=0;fontSize=19;fontFamily=Times New Roman;" parent="1" source="6DMQwFqQUjRo6mC77eed-4" target="6DMQwFqQUjRo6mC77eed-28" edge="1">
          <mxGeometry relative="1" as="geometry" />
        </mxCell>
        <mxCell id="6DMQwFqQUjRo6mC77eed-38" style="edgeStyle=orthogonalEdgeStyle;rounded=0;orthogonalLoop=1;jettySize=auto;html=1;entryX=0.5;entryY=0;entryDx=0;entryDy=0;fontSize=19;fontFamily=Times New Roman;" parent="1" source="6DMQwFqQUjRo6mC77eed-4" target="6DMQwFqQUjRo6mC77eed-35" edge="1">
          <mxGeometry relative="1" as="geometry" />
        </mxCell>
        <mxCell id="6DMQwFqQUjRo6mC77eed-4" value="Weka" style="rounded=0;whiteSpace=wrap;html=1;fontSize=19;fontFamily=Times New Roman;" parent="1" vertex="1">
          <mxGeometry x="900" y="120" width="120" height="60" as="geometry" />
        </mxCell>
        <mxCell id="6DMQwFqQUjRo6mC77eed-6" value="Phân loại" style="rounded=0;whiteSpace=wrap;html=1;fontSize=19;fontFamily=Times New Roman;" parent="1" vertex="1">
          <mxGeometry x="465" y="300" width="120" height="60" as="geometry" />
        </mxCell>
        <mxCell id="6DMQwFqQUjRo6mC77eed-8" value="&lt;span&gt;Decision&lt;br&gt;Tree Classifier&lt;/span&gt;&lt;span style=&quot;background-color: transparent; color: light-dark(rgb(0, 0, 0), rgb(255, 255, 255));&quot;&gt;&amp;nbsp;&lt;/span&gt;" style="rounded=0;whiteSpace=wrap;html=1;fontSize=19;fontFamily=Times New Roman;" parent="1" vertex="1">
          <mxGeometry x="380" y="440" width="120" height="60" as="geometry" />
        </mxCell>
        <mxCell id="6DMQwFqQUjRo6mC77eed-9" value="&lt;span&gt;K-Nearest Neighbors (KNN)&amp;nbsp;&lt;/span&gt;" style="rounded=0;whiteSpace=wrap;html=1;fontSize=19;fontFamily=Times New Roman;" parent="1" vertex="1">
          <mxGeometry x="550" y="440" width="120" height="60" as="geometry" />
        </mxCell>
        <mxCell id="6DMQwFqQUjRo6mC77eed-10" style="edgeStyle=orthogonalEdgeStyle;rounded=0;orthogonalLoop=1;jettySize=auto;html=1;entryX=0.5;entryY=0;entryDx=0;entryDy=0;fontSize=19;fontFamily=Times New Roman;" parent="1" source="6DMQwFqQUjRo6mC77eed-6" target="6DMQwFqQUjRo6mC77eed-8" edge="1">
          <mxGeometry relative="1" as="geometry" />
        </mxCell>
        <mxCell id="6DMQwFqQUjRo6mC77eed-11" style="edgeStyle=orthogonalEdgeStyle;rounded=0;orthogonalLoop=1;jettySize=auto;html=1;entryX=0.563;entryY=0.03;entryDx=0;entryDy=0;entryPerimeter=0;fontSize=19;fontFamily=Times New Roman;" parent="1" source="6DMQwFqQUjRo6mC77eed-6" target="6DMQwFqQUjRo6mC77eed-9" edge="1">
          <mxGeometry relative="1" as="geometry" />
        </mxCell>
        <mxCell id="6DMQwFqQUjRo6mC77eed-16" style="edgeStyle=orthogonalEdgeStyle;rounded=0;orthogonalLoop=1;jettySize=auto;html=1;entryX=0.5;entryY=0;entryDx=0;entryDy=0;fontSize=19;fontFamily=Times New Roman;" parent="1" source="6DMQwFqQUjRo6mC77eed-13" target="6DMQwFqQUjRo6mC77eed-15" edge="1">
          <mxGeometry relative="1" as="geometry" />
        </mxCell>
        <mxCell id="6DMQwFqQUjRo6mC77eed-13" value="Gom cụm" style="rounded=0;whiteSpace=wrap;html=1;fontSize=19;fontFamily=Times New Roman;" parent="1" vertex="1">
          <mxGeometry x="610" y="200" width="120" height="60" as="geometry" />
        </mxCell>
        <mxCell id="6DMQwFqQUjRo6mC77eed-15" value="&lt;span&gt;K-Means&lt;br&gt;Clustering&amp;nbsp;&lt;/span&gt;" style="rounded=0;whiteSpace=wrap;html=1;fontSize=19;fontFamily=Times New Roman;" parent="1" vertex="1">
          <mxGeometry x="610" y="300" width="120" height="60" as="geometry" />
        </mxCell>
        <mxCell id="6DMQwFqQUjRo6mC77eed-20" style="edgeStyle=orthogonalEdgeStyle;rounded=0;orthogonalLoop=1;jettySize=auto;html=1;fontSize=19;fontFamily=Times New Roman;" parent="1" source="6DMQwFqQUjRo6mC77eed-17" target="6DMQwFqQUjRo6mC77eed-19" edge="1">
          <mxGeometry relative="1" as="geometry" />
        </mxCell>
        <mxCell id="6DMQwFqQUjRo6mC77eed-17" value="Phân lớp" style="rounded=0;whiteSpace=wrap;html=1;fontSize=19;fontFamily=Times New Roman;" parent="1" vertex="1">
          <mxGeometry x="760" y="200" width="120" height="60" as="geometry" />
        </mxCell>
        <mxCell id="6DMQwFqQUjRo6mC77eed-19" value="&lt;span&gt;IBk&lt;/span&gt;" style="rounded=0;whiteSpace=wrap;html=1;fontSize=19;fontFamily=Times New Roman;" parent="1" vertex="1">
          <mxGeometry x="760" y="300" width="120" height="60" as="geometry" />
        </mxCell>
        <mxCell id="6DMQwFqQUjRo6mC77eed-26" style="edgeStyle=orthogonalEdgeStyle;rounded=0;orthogonalLoop=1;jettySize=auto;html=1;entryX=0.5;entryY=0;entryDx=0;entryDy=0;fontSize=19;fontFamily=Times New Roman;" parent="1" source="6DMQwFqQUjRo6mC77eed-21" target="6DMQwFqQUjRo6mC77eed-24" edge="1">
          <mxGeometry relative="1" as="geometry" />
        </mxCell>
        <mxCell id="6DMQwFqQUjRo6mC77eed-27" style="edgeStyle=orthogonalEdgeStyle;rounded=0;orthogonalLoop=1;jettySize=auto;html=1;entryX=0.5;entryY=0;entryDx=0;entryDy=0;fontSize=19;fontFamily=Times New Roman;" parent="1" source="6DMQwFqQUjRo6mC77eed-21" target="6DMQwFqQUjRo6mC77eed-25" edge="1">
          <mxGeometry relative="1" as="geometry" />
        </mxCell>
        <mxCell id="6DMQwFqQUjRo6mC77eed-21" value="&lt;span&gt;Tập&lt;br&gt;hợp mô hình&lt;/span&gt;" style="rounded=0;whiteSpace=wrap;html=1;fontSize=19;fontFamily=Times New Roman;" parent="1" vertex="1">
          <mxGeometry x="900" y="300" width="120" height="60" as="geometry" />
        </mxCell>
        <mxCell id="6DMQwFqQUjRo6mC77eed-24" value="&lt;span&gt;Bagging&amp;nbsp;&lt;/span&gt;" style="rounded=0;whiteSpace=wrap;html=1;fontSize=19;fontFamily=Times New Roman;" parent="1" vertex="1">
          <mxGeometry x="820" y="440" width="120" height="60" as="geometry" />
        </mxCell>
        <mxCell id="6DMQwFqQUjRo6mC77eed-25" value="&lt;span&gt;Kstar&amp;nbsp;&lt;/span&gt;" style="rounded=0;whiteSpace=wrap;html=1;fontSize=19;fontFamily=Times New Roman;" parent="1" vertex="1">
          <mxGeometry x="980" y="440" width="120" height="60" as="geometry" />
        </mxCell>
        <mxCell id="6DMQwFqQUjRo6mC77eed-30" style="edgeStyle=orthogonalEdgeStyle;rounded=0;orthogonalLoop=1;jettySize=auto;html=1;entryX=0.5;entryY=0;entryDx=0;entryDy=0;fontSize=19;fontFamily=Times New Roman;" parent="1" source="6DMQwFqQUjRo6mC77eed-28" target="6DMQwFqQUjRo6mC77eed-29" edge="1">
          <mxGeometry relative="1" as="geometry" />
        </mxCell>
        <mxCell id="6DMQwFqQUjRo6mC77eed-28" value="&lt;span&gt;Phân&lt;br&gt;cụm&amp;nbsp;&lt;/span&gt;" style="rounded=0;whiteSpace=wrap;html=1;fontSize=19;fontFamily=Times New Roman;" parent="1" vertex="1">
          <mxGeometry x="1180" y="300" width="120" height="60" as="geometry" />
        </mxCell>
        <mxCell id="6DMQwFqQUjRo6mC77eed-29" value="&lt;span&gt;SimpleKMeans&amp;nbsp;&lt;/span&gt;" style="rounded=0;whiteSpace=wrap;html=1;fontSize=19;fontFamily=Times New Roman;" parent="1" vertex="1">
          <mxGeometry x="1120" y="440" width="120" height="60" as="geometry" />
        </mxCell>
        <mxCell id="6DMQwFqQUjRo6mC77eed-32" value="&lt;span&gt;Hierarchical&lt;br&gt;Clusterer&amp;nbsp;&lt;/span&gt;" style="rounded=0;whiteSpace=wrap;html=1;fontSize=19;fontFamily=Times New Roman;" parent="1" vertex="1">
          <mxGeometry x="1270" y="440" width="120" height="60" as="geometry" />
        </mxCell>
        <mxCell id="6DMQwFqQUjRo6mC77eed-33" style="edgeStyle=orthogonalEdgeStyle;rounded=0;orthogonalLoop=1;jettySize=auto;html=1;entryX=0.417;entryY=0;entryDx=0;entryDy=0;entryPerimeter=0;fontSize=19;fontFamily=Times New Roman;" parent="1" source="6DMQwFqQUjRo6mC77eed-28" target="6DMQwFqQUjRo6mC77eed-32" edge="1">
          <mxGeometry relative="1" as="geometry" />
        </mxCell>
        <mxCell id="6DMQwFqQUjRo6mC77eed-37" style="edgeStyle=orthogonalEdgeStyle;rounded=0;orthogonalLoop=1;jettySize=auto;html=1;entryX=0.5;entryY=0;entryDx=0;entryDy=0;fontSize=19;fontFamily=Times New Roman;" parent="1" source="6DMQwFqQUjRo6mC77eed-35" target="6DMQwFqQUjRo6mC77eed-36" edge="1">
          <mxGeometry relative="1" as="geometry" />
        </mxCell>
        <mxCell id="6DMQwFqQUjRo6mC77eed-35" value="Luật kết hợp" style="rounded=0;whiteSpace=wrap;html=1;fontSize=19;fontFamily=Times New Roman;" parent="1" vertex="1">
          <mxGeometry x="1040" y="200" width="120" height="60" as="geometry" />
        </mxCell>
        <mxCell id="6DMQwFqQUjRo6mC77eed-36" value="&lt;span&gt;Apriori&amp;nbsp;&lt;/span&gt;" style="rounded=0;whiteSpace=wrap;html=1;fontSize=19;fontFamily=Times New Roman;" parent="1" vertex="1">
          <mxGeometry x="1040" y="300" width="120" height="60" as="geometry" />
        </mxCell>
        <mxCell id="6DMQwFqQUjRo6mC77eed-43" style="edgeStyle=orthogonalEdgeStyle;rounded=0;orthogonalLoop=1;jettySize=auto;html=1;entryX=0.5;entryY=0;entryDx=0;entryDy=0;fontSize=19;fontFamily=Times New Roman;" parent="1" source="6DMQwFqQUjRo6mC77eed-39" target="6DMQwFqQUjRo6mC77eed-42" edge="1">
          <mxGeometry relative="1" as="geometry" />
        </mxCell>
        <mxCell id="6DMQwFqQUjRo6mC77eed-39" value="Tiền xử lý dữ liệu" style="rounded=0;whiteSpace=wrap;html=1;fontSize=19;fontFamily=Times New Roman;" parent="1" vertex="1">
          <mxGeometry x="1130" y="20" width="280" height="60" as="geometry" />
        </mxCell>
        <mxCell id="6DMQwFqQUjRo6mC77eed-41" style="edgeStyle=orthogonalEdgeStyle;rounded=0;orthogonalLoop=1;jettySize=auto;html=1;entryX=0.5;entryY=0;entryDx=0;entryDy=0;fontSize=19;fontFamily=Times New Roman;" parent="1" source="6DMQwFqQUjRo6mC77eed-39" target="6DMQwFqQUjRo6mC77eed-4" edge="1">
          <mxGeometry relative="1" as="geometry">
            <mxPoint x="780" y="90" as="targetPoint" />
          </mxGeometry>
        </mxCell>
        <mxCell id="6DMQwFqQUjRo6mC77eed-46" style="edgeStyle=orthogonalEdgeStyle;rounded=0;orthogonalLoop=1;jettySize=auto;html=1;entryX=0.5;entryY=0;entryDx=0;entryDy=0;fontSize=19;fontFamily=Times New Roman;" parent="1" source="6DMQwFqQUjRo6mC77eed-42" target="6DMQwFqQUjRo6mC77eed-44" edge="1">
          <mxGeometry relative="1" as="geometry" />
        </mxCell>
        <mxCell id="6DMQwFqQUjRo6mC77eed-42" value="Orange" style="rounded=0;whiteSpace=wrap;html=1;fontSize=19;fontFamily=Times New Roman;" parent="1" vertex="1">
          <mxGeometry x="1460" y="90" width="120" height="60" as="geometry" />
        </mxCell>
        <mxCell id="6DMQwFqQUjRo6mC77eed-49" style="edgeStyle=orthogonalEdgeStyle;rounded=0;orthogonalLoop=1;jettySize=auto;html=1;fontSize=19;fontFamily=Times New Roman;" parent="1" source="6DMQwFqQUjRo6mC77eed-44" target="6DMQwFqQUjRo6mC77eed-47" edge="1">
          <mxGeometry relative="1" as="geometry" />
        </mxCell>
        <mxCell id="6DMQwFqQUjRo6mC77eed-50" style="edgeStyle=orthogonalEdgeStyle;rounded=0;orthogonalLoop=1;jettySize=auto;html=1;entryX=0.5;entryY=0;entryDx=0;entryDy=0;fontSize=19;fontFamily=Times New Roman;" parent="1" source="6DMQwFqQUjRo6mC77eed-44" target="6DMQwFqQUjRo6mC77eed-48" edge="1">
          <mxGeometry relative="1" as="geometry" />
        </mxCell>
        <mxCell id="6DMQwFqQUjRo6mC77eed-44" value="Tạo Workflow" style="rounded=0;whiteSpace=wrap;html=1;fontSize=19;fontFamily=Times New Roman;" parent="1" vertex="1">
          <mxGeometry x="1460" y="200" width="120" height="60" as="geometry" />
        </mxCell>
        <mxCell id="6DMQwFqQUjRo6mC77eed-47" value="&lt;font&gt;&lt;span&gt;Áp dụng các mô hình phân loại&lt;/span&gt;&lt;/font&gt;" style="rounded=0;whiteSpace=wrap;html=1;fontSize=19;fontFamily=Times New Roman;" parent="1" vertex="1">
          <mxGeometry x="1379" y="335" width="120" height="60" as="geometry" />
        </mxCell>
        <mxCell id="6DMQwFqQUjRo6mC77eed-48" value="&lt;font&gt;&lt;span&gt;Áp dụng các mô hình phân cụm&lt;/span&gt;&lt;/font&gt;" style="rounded=0;whiteSpace=wrap;html=1;fontSize=19;fontFamily=Times New Roman;" parent="1" vertex="1">
          <mxGeometry x="1550" y="329" width="120" height="60" as="geometry" />
        </mxCell>
      </root>
    </mxGraphModel>
  </diagram>
</mxfile>
